{
    "asset" : {
        "generator" : "Khronos glTF Blender I/O v1.2.75",
        "version" : "2.0"
    },
    "scene" : 0,
    "scenes" : [
        {
            "name" : "Scene",
            "nodes" : [
                0,
                1,
                2,
                3
            ]
        }
    ],
    "nodes" : [
        {
            "name" : "Light",
            "rotation" : [
                0.16907575726509094,
                0.7558803558349609,
                -0.27217137813568115,
                0.570947527885437
            ],
            "translation" : [
                4.076245307922363,
                5.903861999511719,
                -1.0054539442062378
            ]
        },
        {
            "name" : "Camera",
            "rotation" : [
                0.483536034822464,
                0.33687159419059753,
                -0.20870360732078552,
                0.7804827094078064
            ],
            "translation" : [
                7.358891487121582,
                4.958309173583984,
                6.925790786743164
            ]
        },
        {
            "mesh" : 0,
            "name" : "Plane",
            "rotation" : [
                -0.00010896758612943813,
                -0.7071067690849304,
                -0.00010897376341745257,
                0.7071068286895752
            ]
        },
        {
            "mesh" : 1,
            "name" : "Plane.003",
            "rotation" : [
                -0.0020680048037320375,
                -0.7071037292480469,
                -0.0020680096931755543,
                0.7071037888526917
            ],
            "scale" : [
                0.977412760257721,
                0.977412760257721,
                0.977412760257721
            ]
        }
    ],
    "animations" : [
        {
            "channels" : [
                {
                    "sampler" : 0,
                    "target" : {
                        "node" : 2,
                        "path" : "weights"
                    }
                }
            ],
            "name" : "KeyAction.001",
            "samplers" : [
                {
                    "input" : 12,
                    "interpolation" : "LINEAR",
                    "output" : 13
                }
            ]
        },
        {
            "channels" : [
                {
                    "sampler" : 0,
                    "target" : {
                        "node" : 3,
                        "path" : "weights"
                    }
                }
            ],
            "name" : "Key.001Action.002",
            "samplers" : [
                {
                    "input" : 12,
                    "interpolation" : "LINEAR",
                    "output" : 14
                }
            ]
        }
    ],
    "materials" : [
        {
            "doubleSided" : true,
            "emissiveFactor" : [
                0,
                0,
                0
            ],
            "name" : "llom-vermell",
            "pbrMetallicRoughness" : {
                "baseColorFactor" : [
                    0.367238312959671,
                    0.017192786559462547,
                    0.05262359604239464,
                    1
                ],
                "metallicFactor" : 0,
                "roughnessFactor" : 0.8833333253860474
            }
        },
        {
            "doubleSided" : true,
            "emissiveFactor" : [
                0,
                0,
                0
            ],
            "name" : "paper-blanc",
            "pbrMetallicRoughness" : {
                "baseColorFactor" : [
                    1,
                    0.9576393365859985,
                    0.9576393365859985,
                    1
                ],
                "metallicFactor" : 0,
                "roughnessFactor" : 0.8999999761581421
            }
        }
    ],
    "meshes" : [
        {
            "extras" : {
                "targetNames" : [
                    "vol-llibre"
                ]
            },
            "name" : "Plane",
            "primitives" : [
                {
                    "attributes" : {
                        "POSITION" : 0,
                        "NORMAL" : 1,
                        "TEXCOORD_0" : 2
                    },
                    "indices" : 3,
                    "material" : 0,
                    "targets" : [
                        {
                            "POSITION" : 4,
                            "NORMAL" : 5
                        }
                    ]
                }
            ],
            "weights" : [
                0
            ]
        },
        {
            "extras" : {
                "targetNames" : [
                    "planes-vol"
                ]
            },
            "name" : "Plane.003",
            "primitives" : [
                {
                    "attributes" : {
                        "POSITION" : 6,
                        "NORMAL" : 7,
                        "TEXCOORD_0" : 8
                    },
                    "indices" : 9,
                    "material" : 1,
                    "targets" : [
                        {
                            "POSITION" : 10,
                            "NORMAL" : 11
                        }
                    ]
                }
            ],
            "weights" : [
                0
            ]
        }
    ],
    "accessors" : [
        {
            "bufferView" : 0,
            "componentType" : 5126,
            "count" : 140,
            "max" : [
                1.0515459775924683,
                0.020328108221292496,
                1.1097888946533203
            ],
            "min" : [
                -0.9943141937255859,
                -0.28654414415359497,
                -1.1097888946533203
            ],
            "type" : "VEC3"
        },
        {
            "bufferView" : 1,
            "componentType" : 5126,
            "count" : 140,
            "type" : "VEC3"
        },
        {
            "bufferView" : 2,
            "componentType" : 5126,
            "count" : 140,
            "type" : "VEC2"
        },
        {
            "bufferView" : 3,
            "componentType" : 5123,
            "count" : 210,
            "type" : "SCALAR"
        },
        {
            "bufferView" : 4,
            "componentType" : 5126,
            "count" : 140,
            "max" : [
                0,
                0.46434247493743896,
                0.00014317035675048828
            ],
            "min" : [
                0,
                0.0024725012481212616,
                7.620640189998085e-07
            ],
            "type" : "VEC3"
        },
        {
            "bufferView" : 5,
            "componentType" : 5126,
            "count" : 140,
            "type" : "VEC3"
        },
        {
            "bufferView" : 6,
            "componentType" : 5126,
            "count" : 294,
            "max" : [
                1.0027772188186646,
                0.25972482562065125,
                1.021078109741211
            ],
            "min" : [
                -1.0220038890838623,
                -0.10639483481645584,
                -1.021078109741211
            ],
            "type" : "VEC3"
        },
        {
            "bufferView" : 7,
            "componentType" : 5126,
            "count" : 294,
            "type" : "VEC3"
        },
        {
            "bufferView" : 8,
            "componentType" : 5126,
            "count" : 294,
            "type" : "VEC2"
        },
        {
            "bufferView" : 9,
            "componentType" : 5123,
            "count" : 1296,
            "type" : "SCALAR"
        },
        {
            "bufferView" : 10,
            "componentType" : 5126,
            "count" : 294,
            "max" : [
                0,
                0.44094720482826233,
                0.002579212188720703
            ],
            "min" : [
                -3.026798367500305e-09,
                0.04261401295661926,
                0.0002492615021765232
            ],
            "type" : "VEC3"
        },
        {
            "bufferView" : 11,
            "componentType" : 5126,
            "count" : 294,
            "type" : "VEC3"
        },
        {
            "bufferView" : 12,
            "componentType" : 5126,
            "count" : 10,
            "max" : [
                0.4166666666666667
            ],
            "min" : [
                0.041666666666666664
            ],
            "type" : "SCALAR"
        },
        {
            "bufferView" : 13,
            "componentType" : 5126,
            "count" : 10,
            "type" : "SCALAR"
        },
        {
            "bufferView" : 14,
            "componentType" : 5126,
            "count" : 10,
            "type" : "SCALAR"
        }
    ],
    "bufferViews" : [
        {
            "buffer" : 0,
            "byteLength" : 1680,
            "byteOffset" : 0
        },
        {
            "buffer" : 0,
            "byteLength" : 1680,
            "byteOffset" : 1680
        },
        {
            "buffer" : 0,
            "byteLength" : 1120,
            "byteOffset" : 3360
        },
        {
            "buffer" : 0,
            "byteLength" : 420,
            "byteOffset" : 4480
        },
        {
            "buffer" : 0,
            "byteLength" : 1680,
            "byteOffset" : 4900
        },
        {
            "buffer" : 0,
            "byteLength" : 1680,
            "byteOffset" : 6580
        },
        {
            "buffer" : 0,
            "byteLength" : 3528,
            "byteOffset" : 8260
        },
        {
            "buffer" : 0,
            "byteLength" : 3528,
            "byteOffset" : 11788
        },
        {
            "buffer" : 0,
            "byteLength" : 2352,
            "byteOffset" : 15316
        },
        {
            "buffer" : 0,
            "byteLength" : 2592,
            "byteOffset" : 17668
        },
        {
            "buffer" : 0,
            "byteLength" : 3528,
            "byteOffset" : 20260
        },
        {
            "buffer" : 0,
            "byteLength" : 3528,
            "byteOffset" : 23788
        },
        {
            "buffer" : 0,
            "byteLength" : 40,
            "byteOffset" : 27316
        },
        {
            "buffer" : 0,
            "byteLength" : 40,
            "byteOffset" : 27356
        },
        {
            "buffer" : 0,
            "byteLength" : 40,
            "byteOffset" : 27396
        }
    ],
    "buffers" : [
        {
            "byteLength" : 27436,
            "uri" : "data:application/octet-stream;base64,"
        }
    ]
}
